<svg width="56" height="56" viewBox="0 0 56 56" fill="none" xmlns="http://www.w3.org/2000/svg">
<g clip-path="url(#clip0_1382_12435)">
<path d="M56 0H0V56H56V0Z" fill="url(#paint0_linear_1382_12435)"/>
<path fill-rule="evenodd" clip-rule="evenodd" d="M36.568 28.252C36.876 30.38 36.344 32.494 35.056 34.216C33.775 35.938 31.892 37.058 29.771 37.366C29.379 37.422 28.987 37.45 28.595 37.45C26.873 37.45 25.207 36.904 23.807 35.854C21.77 34.335 20.587 32.004 20.573 29.456H21.973C21.987 31.549 22.96 33.474 24.647 34.727C26.068 35.784 27.818 36.232 29.575 35.973C31.332 35.714 32.879 34.79 33.943 33.369C35 31.948 35.448 30.198 35.189 28.441C34.93 26.684 34.006 25.137 32.585 24.073C30.093 22.211 26.425 22.484 24.038 24.479H25.207V25.879H22.407C22.225 25.879 22.043 25.809 21.91 25.676C21.777 25.543 21.707 25.368 21.707 25.179V22.386H23.107V23.436C24.276 22.456 25.725 21.777 27.286 21.525C29.498 21.168 31.731 21.686 33.425 22.946C35.147 24.227 36.267 26.103 36.575 28.231M37.807 40.579C37.485 40.579 37.163 40.621 36.855 40.712L34.867 38.059L33.747 38.899L35.588 41.363C34.986 41.839 34.531 42.525 34.37 43.379H21.644C21.504 42.497 21.091 41.797 20.468 41.307L22.26 38.892L21.133 38.059L19.166 40.698C18.865 40.628 18.543 40.579 18.193 40.579C17.892 40.579 17.612 40.614 17.339 40.663L13.265 27.048C13.881 26.838 14.378 26.467 14.735 25.97L17.934 27.223L18.445 25.921L15.288 24.682C15.344 24.395 15.386 24.094 15.386 23.772C15.386 23.002 15.204 22.337 14.875 21.798L25.431 14.406C25.9 14.882 26.53 15.19 27.286 15.309V18.872H28.686V15.309C29.449 15.197 30.086 14.889 30.555 14.42L41.076 21.882C40.768 22.414 40.593 23.044 40.593 23.772C40.593 24.066 40.635 24.36 40.705 24.654L37.534 25.921L38.052 27.223L41.3 25.921C41.727 26.495 42.336 26.943 43.127 27.146L38.01 40.586C37.94 40.586 37.87 40.565 37.8 40.565M37.8 46.165C36.428 46.165 35.7 45.437 35.7 44.065C35.7 42.693 36.771 41.965 37.8 41.965C39.151 41.965 39.9 42.707 39.9 44.065C39.9 45.423 39.172 46.165 37.8 46.165ZM18.2 46.165C16.863 46.165 16.1 45.402 16.1 44.065C16.1 42.728 16.849 41.972 18.2 41.972C19.936 41.972 20.3 43.113 20.3 44.065C20.3 45.416 19.551 46.165 18.2 46.165ZM9.80002 23.8C9.80002 22.442 10.542 21.7 11.9 21.7C13.258 21.7 14 22.442 14 23.8C14 25.158 13.272 25.9 11.9 25.9C10.528 25.9 9.80002 25.193 9.80002 23.8ZM28 9.80002C29.372 9.80002 30.1 10.528 30.1 11.9C30.1 13.272 29.372 13.993 28 13.993C26.628 13.993 25.9 13.251 25.9 11.9C25.9 10.549 26.642 9.80002 28 9.80002ZM44.1 21.7C45.451 21.7 46.2 22.442 46.2 23.8C46.2 25.158 45.451 25.9 44.1 25.9C42.749 25.9 42 24.815 42 23.8C42 22.463 42.763 21.7 44.1 21.7ZM47.6 23.8C47.6 21.672 46.228 20.3 44.1 20.3C43.302 20.3 42.609 20.51 42.049 20.874L31.29 13.244C31.423 12.838 31.507 12.397 31.507 11.9C31.507 9.74402 30.163 8.40002 28.007 8.40002C25.851 8.40002 24.507 9.77202 24.507 11.9C24.507 12.39 24.591 12.831 24.724 13.237L13.888 20.818C13.342 20.482 12.677 20.3 11.9 20.3C9.77202 20.3 8.40002 21.672 8.40002 23.8C8.40002 25.928 9.73002 27.293 11.879 27.3L16.051 41.237C15.197 41.839 14.7 42.826 14.7 44.1C14.7 46.228 16.072 47.6 18.2 47.6C20.083 47.6 21.371 46.522 21.644 44.8H34.363C34.636 46.522 35.924 47.6 37.807 47.6C39.935 47.6 41.307 46.228 41.307 44.1C41.307 42.574 40.586 41.44 39.403 40.922L44.611 27.258C46.445 27.055 47.614 25.753 47.614 23.8" fill="white"/>
</g>
<defs>
<linearGradient id="paint0_linear_1382_12435" x1="0.140003" y1="56.14" x2="56.14" y2="0.140003" gradientUnits="userSpaceOnUse">
<stop stop-color="#1B660F"/>
<stop offset="1" stop-color="#6CAE3E"/>
</linearGradient>
<clipPath id="clip0_1382_12435">
<rect width="56" height="56" rx="4" fill="white"/>
</clipPath>
</defs>
</svg>
