<svg width="48" height="48" viewBox="0 0 48 48" fill="none" xmlns="http://www.w3.org/2000/svg">
<rect width="48" height="48" rx="4" fill="#E8EEFD"/>
<path d="M11.3087 9.35368C11.8282 8.51244 12.7483 8 13.7394 8H34.2606C35.2517 8 36.1718 8.51244 36.6913 9.35368L39.7861 14.3657C40.3712 15.3133 39.6871 16.5333 38.5707 16.5333H9.42929C8.31289 16.5333 7.62884 15.3133 8.21394 14.3657L11.3087 9.35368Z" fill="#DE9EFF"/>
<path d="M16.8648 23.6444C16.8648 24.4174 16.2133 25.0667 15.4378 25.0667C14.6622 25.0667 14.0107 24.4174 14.0107 23.6444C14.0107 22.8715 14.6622 22.2222 15.4378 22.2222C16.2133 22.2222 16.8648 22.8715 16.8648 23.6444Z" fill="#012CAD"/>
<path fill-rule="evenodd" clip-rule="evenodd" d="M8.55465 19.7947C8.55628 19.744 8.57184 19.6924 8.60405 19.645L12.4958 13.9152C12.894 13.329 13.5581 12.9778 14.2684 12.9778H33.7316C34.4419 12.9778 35.106 13.329 35.5042 13.9152L39.3959 19.645C39.4282 19.6924 39.4437 19.744 39.4453 19.7947C39.6062 20.0942 39.6974 20.4365 39.6974 20.8V26.4889C39.6974 27.6671 38.7391 28.6222 37.5569 28.6222H10.4431C9.26091 28.6222 8.30255 27.6671 8.30255 26.4889V20.8C8.30255 20.4365 8.39378 20.0942 8.55465 19.7947ZM14.2684 14.4H33.7316C33.9684 14.4 34.1897 14.5171 34.3225 14.7125L37.0082 18.6667H10.9918L13.6775 14.7125C13.8103 14.5171 14.0316 14.4 14.2684 14.4ZM10.4431 20.0889C10.049 20.0889 9.72959 20.4073 9.72959 20.8V26.4889C9.72959 26.8816 10.049 27.2 10.4431 27.2H37.5569C37.951 27.2 38.2704 26.8816 38.2704 26.4889V20.8C38.2704 20.4073 37.951 20.0889 37.5569 20.0889H10.4431Z" fill="#012CAD"/>
<path d="M15.4378 36.4444C16.2133 36.4444 16.8648 35.7952 16.8648 35.0222C16.8648 34.2493 16.2133 33.6 15.4378 33.6C14.6622 33.6 14.0107 34.2493 14.0107 35.0222C14.0107 35.7952 14.6622 36.4444 15.4378 36.4444Z" fill="#012CAD"/>
<path fill-rule="evenodd" clip-rule="evenodd" d="M10.4431 30.0444C9.26091 30.0444 8.30255 30.9996 8.30255 32.1778V37.8667C8.30255 39.0449 9.26091 40 10.4431 40H37.5569C38.7391 40 39.6974 39.0449 39.6974 37.8667V32.1778C39.6974 30.9996 38.7391 30.0444 37.5569 30.0444H10.4431ZM37.5569 31.4667H10.4431C10.049 31.4667 9.72959 31.785 9.72959 32.1778V37.8667C9.72959 38.2594 10.049 38.5778 10.4431 38.5778H37.5569C37.951 38.5778 38.2704 38.2594 38.2704 37.8667V32.1778C38.2704 31.785 37.951 31.4667 37.5569 31.4667Z" fill="#012CAD"/>
</svg>
